# xmcd CD database file
#
# Track frame offsets:
#	150
#	18235
#	34320
#	51055
#	68078
#	84523
#
# Disc length: 1352 seconds
#
# Revision: 0
# Processed by: cddbd v1.5.2PL0 Copyright (c) Steve Scherf et al.
# Submitted via: CDex 1.70beta2
#
DISCID=43054606
DTITLE=Enya - Sounds of the Season
DYEAR=2006
DGENRE=New Age
TTITLE0=01-Adeste, Fideles
TTITLE1=02-The Magic of the Night
TTITLE2=03-We Wish You a Merry Christmas
TTITLE3=04-Christmas Secrets
TTITLE4=05-Amid the Falling Snow
TTITLE5=06-Oiche Chiuin (Silent Night)
EXTD=YEAR: 2006
EXTT0=
EXTT1=
EXTT2=
EXTT3=
EXTT4=
EXTT5=
PLAYORDER=
